<?xml version="1.0" encoding="UTF-8"?>
<svg id="Layer_2" data-name="Layer 2" xmlns="http://www.w3.org/2000/svg" viewBox="0 0 189.77 159.3">
  <defs>
    <style>
      .cls-1 {
        stroke-width: 6px;
      }

      .cls-1, .cls-2, .cls-3 {
        stroke: #a93e2c;
        stroke-linecap: round;
        stroke-linejoin: round;
      }

      .cls-1, .cls-3 {
        fill: none;
      }

      .cls-2 {
        stroke-width: 4px;
      }

      .cls-2, .cls-4 {
        fill: #fff;
      }

      .cls-5 {
        fill: #a93e2c;
      }

      .cls-5, .cls-4 {
        stroke-width: 0px;
      }

      .cls-3 {
        stroke-width: 4.88px;
      }
    </style>
  </defs>
  <g id="Layer_1-2" data-name="Layer 1">
    <g>
      <g>
        <path class="cls-4" d="M130.93,156.39c-4.68,0-8.78-1.63-12.21-4.85-.97-.92-1.78-1.92-2.56-2.9-7.48,1.42-15.19,2.14-22.95,2.14-6.84,0-13.9-.56-21.01-1.67-2.62,3.56-6.25,5.89-10.63,6.78-1.49.3-2.99.46-4.44.46-7.19,0-13.42-3.78-17.1-10.37-1.55-2.78-2.54-6-3.08-10.11-7.02-6.83-11.76-15.34-14.44-25.92-1.52.26-3.08.51-4.7.51h-.2c-4.5-.06-8.66-1.99-11.41-5.3-2.73-3.29-3.8-7.56-3.02-12.02.97-5.53,3.9-10.34,8.95-14.7,1.22-1.05,2.52-1.89,3.77-2.7.46-.3.92-.59,1.37-.9.32-3.41.91-6.37,1.54-9.49.18-.89.36-1.8.55-2.77.39-2.01.94-3.47,1.95-6.13,1.31-3.45,2.84-6.61,4.68-9.67,1.23-2.03,2.59-4,4.07-5.88-7.77-9.15-8.74-18.54-2.87-27.94,4.11-6.59,10.46-10.07,18.36-10.07.93,0,1.89.05,2.85.15,9.16.93,15.77,5.86,19.26,14.31,8.88-2.54,17.95-3.83,27-3.83,8.46,0,17.11,1.12,25.76,3.35.24-.58.51-1.17.83-1.76,4.17-7.67,10.91-11.86,19.49-12.14.3,0,.6-.01.9-.01,7.87,0,14.25,3.26,18.96,9.68,5.33,7.27,4.88,18.31-1.03,25.67-.35.43-.7.84-1.06,1.25,2.71,3.33,5.09,7.05,7.11,11.1,3.17,6.36,5.23,13.18,6.12,20.26l.02.2c.15,1.21.31,2.45.41,3.72,5.8,3.31,9.9,7.43,12.6,12.64,2.61,5.04,2.82,9.94.63,14.58-2.13,4.51-5.98,7.34-11.44,8.4-1.09.21-2.2.32-3.3.32-1.37,0-2.76-.17-4.15-.49-.2.74-.41,1.49-.64,2.24-2.85,9.33-7.55,17.25-13.98,23.51-.1.1-.15.32-.21,1.1-.03.4-.07.8-.14,1.2-1.46,8.77-6.87,15.2-14.48,17.2-2.13.56-4.19.85-6.13.85Z"/>
        <path class="cls-5" d="M45.52,5.81c.84,0,1.69.04,2.55.13,9.19.94,15.01,6.14,17.76,15,9.57-3.02,19.17-4.5,28.8-4.5,9.14,0,18.31,1.33,27.5,3.92.5-1.19.94-2.58,1.63-3.85,3.66-6.74,9.36-10.38,17.03-10.62.27,0,.54-.01.81-.01,6.87,0,12.46,2.82,16.62,8.49,4.83,6.59,3.9,16.1-.95,22.14-.83,1.03-1.74,1.99-2.65,3.02,3.37,3.76,6.12,7.94,8.37,12.44,3.04,6.11,4.98,12.56,5.84,19.33.18,1.42.36,2.85.46,4.28.05.8.39,1.22,1.08,1.6,5.01,2.78,9.13,6.5,11.79,11.64,2.01,3.88,2.51,7.93.59,12-1.86,3.94-5.21,5.98-9.37,6.79-.92.18-1.84.26-2.74.26-1.94,0-3.85-.39-5.72-1.1-.13-.05-.28-.04-.48-.06-.46,1.67-.86,3.33-1.36,4.97-2.59,8.5-6.83,16.05-13.23,22.28-1.19,1.16-.96,2.57-1.18,3.9-1.21,7.3-5.62,13.1-12.35,14.87-1.83.48-3.64.75-5.39.75-3.69,0-7.16-1.19-10.22-4.06-1.22-1.15-2.21-2.56-3.4-3.97-7.99,1.64-16.03,2.43-24.1,2.43-7.43,0-14.9-.66-22.4-1.93-2.18,3.72-5.52,6.22-9.82,7.1-1.31.27-2.61.4-3.87.4-6.04,0-11.31-3.05-14.57-8.88-1.62-2.9-2.36-6.09-2.78-9.36-.05-.37-.19-.81-.44-1.05-7.93-7.55-12.38-16.95-14.63-27.51-2.38.33-4.65.91-6.92.91-.05,0-.11,0-.16,0-7.34-.09-12.97-6.15-11.6-13.91.95-5.42,3.97-9.54,7.99-13.01,1.69-1.46,3.7-2.54,5.52-3.85.29-.21.53-.68.56-1.05.37-4.47,1.22-8.02,2.1-12.61.34-1.76.83-3.06,1.81-5.66.75-1.99,2.12-5.33,4.45-9.19,1.4-2.33,2.99-4.56,4.76-6.7.21-.25.4-.52.62-.81-7.46-7.81-10.3-16.52-4.21-26.27,3.68-5.9,9.27-8.7,15.89-8.7M45.52,0h0c-8.82,0-16.22,4.06-20.82,11.43-4.39,7.03-7.33,17.6,1.66,29.52-1.02,1.41-1.99,2.86-2.88,4.33-1.94,3.21-3.54,6.52-4.91,10.14-1.03,2.72-1.65,4.37-2.09,6.62-.18.95-.37,1.86-.54,2.74-.56,2.77-1.09,5.42-1.43,8.39-.07.04-.14.09-.2.13-1.28.83-2.73,1.76-4.1,2.94-5.58,4.82-8.82,10.18-9.91,16.4-.93,5.31.36,10.41,3.65,14.37,3.29,3.97,8.25,6.28,13.61,6.35h.24c.89,0,1.75-.06,2.58-.16,2.81,9.6,7.37,17.52,13.83,24.04.43,2.83,1.28,6.56,3.29,10.15,4.21,7.53,11.37,11.85,19.64,11.85,1.65,0,3.34-.17,5.02-.52,4.51-.92,8.34-3.14,11.27-6.5,6.69.96,13.33,1.45,19.79,1.45,7.35,0,14.66-.63,21.79-1.88.52.62,1.09,1.24,1.74,1.85,3.98,3.74,8.76,5.64,14.2,5.64,2.18,0,4.49-.32,6.87-.94,8.74-2.3,14.95-9.61,16.6-19.54.08-.51.13-.96.16-1.33,6.4-6.46,11.11-14.5,14.02-23.9.69.07,1.39.11,2.07.11,1.29,0,2.58-.12,3.85-.37,7.99-1.55,11.76-6.3,13.51-10.01,2.56-5.42,2.32-11.35-.68-17.15-2.71-5.25-6.89-9.63-12.42-13.05-.09-.79-.18-1.56-.28-2.32l-.03-.22c-.93-7.41-3.09-14.54-6.4-21.19-1.74-3.5-3.74-6.76-5.98-9.75,6.43-8.47,6.76-20.43.71-28.69C157.71,3.83,150.35.07,141.62.07c-.33,0-.66,0-1,.02-9.58.3-17.12,4.94-21.82,13.42-8.11-1.9-16.22-2.87-24.16-2.87-8.5,0-17.02,1.1-25.39,3.28C65.13,5.85,58.11,1.13,48.67.16,47.61.05,46.55,0,45.52,0h0Z"/>
      </g>
      <g>
        <path class="cls-5" d="M87.53,84.84c-1.66,0-3.36-.4-5.06-1.18-2.67-1.23-4.37-3.52-4.9-6.62-.26-1.53.23-2.68,1.41-3.34.45-.25.94-.38,1.41-.38,1.26,0,2.22.88,2.39,2.19.35,2.7,2.75,3.93,4.83,3.93.83,0,1.62-.19,2.27-.54.71-.39,1.25-1.14,1.78-1.87.15-.21.31-.42.46-.62.15-.19.2-.47.26-.77.03-.15.06-.31.1-.45.38-1.27,1.23-1.94,2.48-1.94.07,0,.13,0,.2,0,1.14.06,1.87.78,2.19,2.11.59,2.5,2.46,4.05,4.86,4.05.55,0,1.12-.08,1.69-.24,1.57-.44,2.49-1.46,2.89-3.2.25-1.11.71-2.28,2.22-2.47.14-.02.29-.03.42-.03.8,0,1.52.32,2.01.9.58.69.81,1.66.63,2.73-.71,4.34-4.54,7.5-9.31,7.69-.17,0-.33,0-.5,0-2.69,0-5.11-.85-7.38-2.61-2.4,1.75-4.87,2.64-7.35,2.64Z"/>
        <path class="cls-5" d="M94.95,73.39c.06,0,.13,0,.19,0,1.2.07,1.79.88,2.06,2,.62,2.63,2.57,4.17,5,4.17.56,0,1.14-.08,1.73-.25,1.72-.48,2.61-1.63,2.99-3.31.26-1.15.7-2.18,2.09-2.36.14-.02.27-.03.4-.03,1.7,0,2.82,1.48,2.5,3.46-.7,4.27-4.47,7.38-9.16,7.57-.17,0-.33,0-.5,0-2.73,0-5.17-.91-7.38-2.64-2.38,1.77-4.83,2.68-7.36,2.68-1.63,0-3.3-.38-5-1.16-2.73-1.26-4.31-3.55-4.82-6.51-.22-1.3.08-2.49,1.34-3.18.44-.24.9-.36,1.34-.36,1.11,0,2.07.75,2.24,2.06.35,2.71,2.74,4.06,4.98,4.06.84,0,1.66-.19,2.34-.56.95-.52,1.59-1.63,2.29-2.53.25-.33.26-.84.38-1.26.35-1.19,1.15-1.84,2.33-1.84M94.95,73.1c-1.3,0-2.22.73-2.62,2.05-.04.15-.07.31-.11.46-.05.28-.1.54-.23.7-.16.2-.31.41-.46.63-.52.72-1.05,1.46-1.73,1.83-.63.34-1.39.53-2.2.53-2.02,0-4.34-1.19-4.68-3.8-.18-1.39-1.2-2.32-2.53-2.32-.5,0-1.01.14-1.48.4-1.25.69-1.76,1.89-1.49,3.49.54,3.15,2.27,5.48,4.99,6.73,1.72.79,3.44,1.19,5.12,1.19,2.49,0,4.96-.88,7.35-2.61,2.27,1.73,4.69,2.57,7.38,2.57.17,0,.34,0,.51-.01,4.84-.19,8.73-3.41,9.45-7.82.18-1.12-.05-2.13-.67-2.85-.52-.61-1.27-.95-2.12-.95-.14,0-.29,0-.44.03-1.59.21-2.08,1.43-2.34,2.59-.38,1.69-1.27,2.67-2.78,3.09-.56.16-1.12.24-1.65.24-2.33,0-4.14-1.51-4.71-3.94-.33-1.41-1.12-2.16-2.33-2.22-.07,0-.14,0-.21,0h0Z"/>
      </g>
      <path class="cls-5" d="M167.39,53.44c-.39-.87-.79-1.74-1.22-2.6-2.36-4.72-5.25-9.1-8.79-13.03.96-1.08,1.92-2.09,2.79-3.16,5.09-6.32,6.07-16.29,1-23.19-4.54-6.18-10.7-9.12-18.31-8.88-8.06.25-14.04,4.07-17.89,11.12-.72,1.33-1.19,2.79-1.71,4.03-19.84-5.58-38.31-7.31-57.91-1.14-2.89-9.27-10.24-12.98-19.9-13.97-8.13-.83-15.02,2.02-19.38,8.98-6.4,10.22-3.42,19.34,4.42,27.52-.23.3-.43.58-.65.85-1.86,2.24-3.53,4.58-5,7.02-1.51,2.5-2.64,4.78-3.46,6.66,20.62-14.7,45.87-23.35,73.16-23.35s52.3,8.57,72.87,23.14Z"/>
      <path class="cls-3" d="M69.87,71.74c-2.67-5.29-8.01-8.69-13.8-8.75-6.46-.07-12.41,4.03-14.8,10.25"/>
      <path class="cls-3" d="M68.87,66.74c-3.41-5.45-9.58-8.47-15.8-7.75-8.66,1.01-12.55,8.74-12.8,9.25"/>
      <path class="cls-3" d="M150.87,71.74c-2.67-5.29-8.01-8.69-13.8-8.75-6.46-.07-12.41,4.03-14.8,10.25"/>
      <path class="cls-3" d="M149.87,66.74c-3.41-5.45-9.58-8.47-15.8-7.75-8.66,1.01-12.55,8.74-12.8,9.25"/>
      <path class="cls-1" d="M87.57,83.49c-.11,4.5,3.4,7.97,7,8,3.94.03,7.76-4.07,7-9"/>
      <path class="cls-2" d="M46.31,82.94s-.02,0-.02,0c-3.23-5.52-12.26-3.9-12.26,3.04,0,4.57,5.33,9.49,11.42,15.39.24.23.55.35.86.35s.62-.12.86-.35c6.11-5.93,11.42-10.82,11.42-15.39,0-6.96-9.06-8.52-12.26-3.04Z"/>
      <path class="cls-2" d="M142.31,82.94s-.02,0-.02,0c-3.23-5.52-12.26-3.9-12.26,3.04,0,4.57,5.33,9.49,11.42,15.39.24.23.55.35.86.35s.62-.12.86-.35c6.11-5.93,11.42-10.82,11.42-15.39,0-6.96-9.06-8.52-12.26-3.04Z"/>
    </g>
  </g>
</svg>