<?xml version="1.0" encoding="UTF-8"?>
<svg id="Layer_2" data-name="Layer 2" xmlns="http://www.w3.org/2000/svg" viewBox="0 0 175.56 149.48">
  <defs>
    <style>
      .cls-1 {
        fill: #fcc043;
        stroke: #a93e2c;
        stroke-width: 7px;
      }

      .cls-2 {
        fill: #a93e2c;
        stroke-width: 0px;
      }
    </style>
  </defs>
  <g id="Layer_1-2" data-name="Layer 1">
    <g id="bubble">
      <path class="cls-2" d="M162.76,108.24c6.88,17.2,12.62,35.36,9.56,40.33-2.2,3.58-28.48-4.01-42.87-14.15-29.27,16.66-99.36,11.6-121.53-31.73C-12.28,63.23,6.53,12.98,60.29,2.53c41.29-8.03,80.64,3.31,101.32,30.2,19.89,25.86,16.92,58.56,1.15,75.51Z"/>
      <path class="cls-1" d="M84.24,57.01s4.84-20.6,23.4-19.66c18.57.94,25.28,18.88,20.13,35.73-4.03,13.19-25.18,33.85-37.45,35.11-12.17,1.25-44.16-19.19-47.12-37.43-2.44-15.01,3.43-27.47,18.1-28.25,11.12-.59,18.88,8.43,22.94,14.51Z"/>
    </g>
  </g>
</svg>