<?xml version="1.0" encoding="UTF-8"?>
<svg id="Layer_2" data-name="Layer 2" xmlns="http://www.w3.org/2000/svg" viewBox="0 0 505.78 519.93">
  <defs>
    <style>
      .cls-1 {
        fill: #ffa929;
        stroke: #a93e2c;
        stroke-width: 7.76px;
      }

      .cls-2 {
        fill: #a93e2c;
        stroke-width: 0px;
      }
    </style>
  </defs>
  <g id="Layer_1-2" data-name="Layer 1">
    <g id="device">
      <path class="cls-1" d="M501.48,299.23c-5.58-82.34-43.61-163.07-102.43-224.48C251.78-74.71,88.58,34.05,26.5,198.9c-23.36,62.52-33.98,133.28-5.38,195.54,66.48,143.15,313.11,158.2,423.69,54.26,41.96-38.76,60.11-94.55,56.68-149.28v-.19ZM378.24,347.15c-10.19,24.49-39.5,27.73-64.75,27.69-21.27.2-40.97.04-63.72.09-17.85-.03-33.37.04-49.8-.02-24.16-.29-48.41.11-64.41-15.92-13.17-13.85-13.84-35.04-14.02-53.34-.17-29.91,0-65.34-.06-95.16.48-23.54-2.53-52.97,17.43-69.86,17.21-13.85,43.73-12.6,65.75-12.84,36.81.13,77.9-.3,114.75.21,22.61.26,48.07,4.66,57.94,25.73,4.22,7.9,6.36,20.31,6.72,30.61.65,12.52.34,29.54.42,45.39,0,20.8,0,43.79,0,62.49-.35,23.19.88,38.05-6.18,54.81l-.05.12Z"/>
      <g>
        <circle class="cls-2" cx="222.6" cy="57.73" r="6.85"/>
        <circle class="cls-2" cx="244.13" cy="57.73" r="6.85"/>
        <circle class="cls-2" cx="265.65" cy="57.73" r="6.85"/>
        <circle class="cls-2" cx="287.17" cy="57.73" r="6.85"/>
        <circle class="cls-2" cx="277.39" cy="74.03" r="6.85"/>
        <circle class="cls-2" cx="255.21" cy="74.03" r="6.85"/>
        <circle class="cls-2" cx="233.04" cy="74.03" r="6.85"/>
      </g>
    </g>
  </g>
</svg>