<?xml version="1.0" encoding="UTF-8"?>
<svg id="Layer_2" data-name="Layer 2" xmlns="http://www.w3.org/2000/svg" viewBox="0 0 83.29 83.29">
  <defs>
    <style>
      .cls-1 {
        fill: #cc4e00;
        stroke-width: 0px;
      }

      .cls-2 {
        fill: #fcc043;
        stroke: #cc4e00;
        stroke-width: 7px;
      }
    </style>
  </defs>
  <g id="Layer_1-2" data-name="Layer 1">
    <g id="food">
      <circle class="cls-2" cx="41.65" cy="41.65" r="38.15"/>
      <path class="cls-1" d="M55.87,24.56c-1.15,0-9.2,2.3-9.2,12.65v8.02c0,2.55,2.07,4.62,4.62,4.62h2.25s.02.01.02.02v9.02c0,1.22.98,2.4,2.2,2.45,1.32.05,2.4-.99,2.4-2.3V26.86c0-1.27-1.03-2.3-2.3-2.3ZM30.57,25.66c0-.59-.44-1.08-1.03-1.15-.59-.07-1.12.33-1.25.9l-2.19,9.86c-.1.46-.15.92-.15,1.38,0,3.31,2.53,6.03,5.76,6.34.01,0,.02.01.02.02v15.9c0,1.22.98,2.4,2.2,2.45,1.32.05,2.4-.99,2.4-2.3v-16.1s0-.02.02-.02c3.22-.3,5.73-3.01,5.73-6.3,0-.46-.05-.92-.15-1.37l-2.18-9.79c-.13-.57-.67-.96-1.25-.89s-1.02.55-1.02,1.14v9.63c0,.35-.24.66-.58.71-.42.07-.79-.23-.83-.64l-.9-9.81c-.05-.6-.55-1.05-1.14-1.05s-1.09.45-1.14,1.05l-.89,9.81c-.04.37-.34.65-.7.65-.39,0-.7-.32-.7-.7v-9.7ZM34.04,36.64h-.04l.02-.05.02.05Z"/>
    </g>
  </g>
</svg>